<svg width="40" height="40" viewBox="0 0 100 100" fill="none" xmlns="http://www.w3.org/2000/svg">
    <g fill="#4289ff" opacity="1">
        <path d="M49.9999 54.4C49.3163 54.3978 48.6433 54.2377 48.0345 53.9301L2.44478 31.1564C0.267866 30.0754 -0.620792 27.4348 0.46005 25.2579C0.887387 24.3969 1.58386 23.7005 2.44478 23.2731L48.0345 0.478362C49.2778 -0.145457 50.7434 -0.145457 51.9868 0.478362L97.5552 23.2733C99.7321 24.3544 100.621 26.9949 99.5399 29.1719C99.1126 30.0328 98.4161 30.7293 97.5552 31.1566L51.9653 53.9514C51.3544 54.2504 50.6813 54.4041 49.9999 54.4ZM14.2801 27.2041L49.9999 45.064L85.7197 27.2041L49.9999 9.4083L14.2801 27.2041Z"></path>
        <path d="M50.001 77.1947C49.3174 77.1926 48.6444 77.0324 48.0356 76.7248L2.4459 53.9513C0.268983 52.8597 -0.611277 50.2106 0.480503 48.0336C1.57209 45.8567 4.22127 44.9765 6.39818 46.0682L50.0012 67.8591L93.6042 46.0469C95.7812 44.9554 98.4303 45.8354 99.5219 48.0123C100.614 50.1893 99.7334 52.8384 97.5565 53.93L51.9664 76.7248C51.3576 77.0324 50.6846 77.1926 50.001 77.1947Z"></path>
        <path d="M50.001 99.9897C49.3174 99.9876 48.6444 99.8274 48.0356 99.5198L2.4459 76.7249C0.268983 75.6333 -0.611277 72.9841 0.480503 70.8072C1.57228 68.6303 4.22127 67.75 6.39818 68.8418L50.0012 90.5899L93.6042 68.799C95.7812 67.7074 98.4303 68.5875 99.5219 70.7644C100.614 72.9413 99.7334 75.5905 97.5565 76.6821L51.9668 99.5196C51.3576 99.8274 50.6846 99.9876 50.001 99.9897Z"></path>
    </g>
</svg>

